<svg width="434" height="434" viewBox="0 0 434 434" fill="none" xmlns="http://www.w3.org/2000/svg">
<circle cx="217" cy="217" r="215.5" fill="#106A55" stroke="#106A55" stroke-width="3"/>
<mask id="mask0_98_30" style="mask-type:alpha" maskUnits="userSpaceOnUse" x="3" y="3" width="428" height="428">
<circle cx="217" cy="217" r="214" fill="#D9D9D9"/>
</mask>
<g mask="url(#mask0_98_30)">
<path d="M169.215 336.948C174.176 378.099 166.184 431.693 153.851 463.587H336.351C332.643 316.36 323.728 241.789 260.851 163.587C234.329 137.9 221.25 129.783 205.854 136.853C204.91 137.287 203.804 137.256 202.905 136.733C185.35 126.53 176.404 127.458 165.053 142.719C164.019 144.109 162.229 144.713 160.525 144.402C144.66 141.507 131.972 155.212 133.418 171.112C133.585 172.954 132.917 174.795 131.657 176.148C110.184 199.23 138.98 265.468 155.547 298.308C161.748 310.601 167.567 323.279 169.215 336.948Z" fill="white" stroke="white"/>
<ellipse cx="149.304" cy="211.815" rx="12.5" ry="18.6742" transform="rotate(-26.1592 149.304 211.815)" fill="#FFA59D"/>
<ellipse cx="164.304" cy="176.815" rx="12.5" ry="18.6742" transform="rotate(-26.1592 164.304 176.815)" fill="#FFA59D"/>
<ellipse cx="193.304" cy="161.815" rx="12.5" ry="18.6742" transform="rotate(-26.1592 193.304 161.815)" fill="#FFA59D"/>
<ellipse cx="229.961" cy="169.118" rx="12.5" ry="17.8972" transform="rotate(-26.1592 229.961 169.118)" fill="#FFA59D"/>
<ellipse cx="181.734" cy="302.269" rx="11.3158" ry="15.256" transform="rotate(-26.1592 181.734 302.269)" fill="#FFA59D"/>
<path d="M210.851 270.087C170.051 277.687 168.851 249.587 173.351 234.587C178.851 185.587 197.851 190.587 232.351 198.587C266.851 206.587 262.851 231.587 252.851 243.587C240.104 257.747 230.89 263.532 210.851 270.087Z" fill="#FFA59D"/>
</g>
</svg>
