<svg width="46" height="46" viewBox="0 0 46 46" fill="none" xmlns="http://www.w3.org/2000/svg">
<rect width="46" height="46" rx="23" fill="black"/>
<mask id="mask0_123_48" style="mask-type:alpha" maskUnits="userSpaceOnUse" x="0" y="0" width="46" height="46">
<rect width="46" height="46" rx="23" fill="black"/>
</mask>
<g mask="url(#mask0_123_48)">
<path d="M15.3308 34.0602C15.3308 34.0602 15.812 27.8045 22.5489 27.8045C29.2857 27.8045 29.2857 34.0602 29.2857 34.0602V49.9399H15.3308V34.0602Z" fill="#2496ED"/>
<path d="M15.3308 34.0602L13.8352 33.9451L13.8308 34.0026V34.0602H15.3308ZM29.2857 49.9399V51.4399H30.7857V49.9399H29.2857ZM15.3308 49.9399H13.8308V51.4399H15.3308V49.9399ZM22.5489 26.3045C18.6054 26.3045 16.3418 28.1868 15.136 30.1462C14.5553 31.0898 14.2349 32.0214 14.0583 32.7102C13.9693 33.0572 13.9148 33.3503 13.8821 33.5633C13.8657 33.67 13.8546 33.7572 13.8473 33.8217C13.8437 33.854 13.841 33.8807 13.839 33.9014C13.838 33.9117 13.8373 33.9206 13.8366 33.9279C13.8363 33.9315 13.8361 33.9348 13.8358 33.9377C13.8357 33.9391 13.8356 33.9404 13.8355 33.9417C13.8354 33.9423 13.8354 33.9432 13.8354 33.9435C13.8353 33.9443 13.8352 33.9451 15.3308 34.0602C16.8264 34.1752 16.8263 34.176 16.8263 34.1767C16.8263 34.1769 16.8262 34.1776 16.8262 34.1781C16.8261 34.1789 16.826 34.1797 16.826 34.1804C16.8259 34.1817 16.8258 34.1827 16.8257 34.1834C16.8256 34.1847 16.8256 34.1845 16.8258 34.183C16.8261 34.18 16.8269 34.1716 16.8284 34.1581C16.8315 34.131 16.8373 34.0838 16.8472 34.0194C16.8671 33.8903 16.9029 33.6947 16.9643 33.4553C17.0884 32.9711 17.3093 32.3388 17.691 31.7185C18.41 30.5501 19.7554 29.3045 22.5489 29.3045V26.3045ZM30.7857 49.9399V34.0602H27.7857V49.9399H30.7857ZM29.2857 34.0602C30.7857 34.0602 30.7857 34.0593 30.7857 34.0585C30.7857 34.0582 30.7857 34.0573 30.7857 34.0567C30.7857 34.0555 30.7857 34.0541 30.7857 34.0527C30.7857 34.0498 30.7856 34.0465 30.7856 34.0428C30.7856 34.0355 30.7854 34.0266 30.7853 34.0162C30.7849 33.9954 30.7843 33.9685 30.7831 33.9361C30.7808 33.8712 30.7764 33.7836 30.7681 33.6763C30.7517 33.4623 30.7196 33.1673 30.6568 32.8177C30.5325 32.125 30.2812 31.1812 29.7643 30.2212C29.2431 29.2532 28.444 28.2561 27.2331 27.5066C26.0181 26.7544 24.4738 26.3045 22.5489 26.3045V29.3045C23.9923 29.3045 24.9744 29.6366 25.6541 30.0574C26.3379 30.4807 26.802 31.0475 27.1229 31.6435C27.4481 32.2474 27.6178 32.8675 27.704 33.3477C27.7465 33.5846 27.7671 33.7783 27.777 33.9064C27.7819 33.9702 27.7841 34.0169 27.785 34.0437C27.7855 34.0571 27.7857 34.0654 27.7857 34.0683C27.7857 34.0697 27.7857 34.0698 27.7857 34.0684C27.7857 34.0678 27.7857 34.0668 27.7857 34.0654C27.7857 34.0647 27.7857 34.0639 27.7857 34.063C27.7857 34.0626 27.7857 34.0619 27.7857 34.0617C27.7857 34.0609 27.7857 34.0602 29.2857 34.0602ZM13.8308 34.0602V49.9399H16.8308V34.0602H13.8308ZM29.2857 48.4399H15.3308V51.4399H29.2857V48.4399Z" fill="white"/>
<path d="M16.7744 17.218L20.6241 27.3233" stroke="white" stroke-width="3"/>
<path d="M27.3609 17.6993L23.5112 26.8421" stroke="white" stroke-width="3"/>
<circle cx="22.5489" cy="35.0226" r="1.92481" fill="white"/>
<path d="M18.1617 14.3308C18.1617 15.8942 16.8942 17.1617 15.3308 17.1617C13.7674 17.1617 12.5 15.8942 12.5 14.3308C12.5 12.7674 13.7674 11.5 15.3308 11.5C16.8942 11.5 18.1617 12.7674 18.1617 14.3308Z" stroke="white" stroke-width="3"/>
<path d="M31.6353 14.3308C31.6353 15.8942 30.3679 17.1617 28.8045 17.1617C27.2411 17.1617 25.9737 15.8942 25.9737 14.3308C25.9737 12.7674 27.2411 11.5 28.8045 11.5C30.3679 11.5 31.6353 12.7674 31.6353 14.3308Z" stroke="white" stroke-width="3"/>
</g>
</svg>
