<svg width="187" height="32" viewBox="0 0 187 32" fill="none" xmlns="http://www.w3.org/2000/svg">
<path d="M4.04 9.2C4.04 7.33333 4.21333 5.82667 4.56 4.68C4.90667 3.53333 5.41333 2.65333 6.08 2.04C6.74667 1.4 7.56 0.973332 8.52 0.759998C9.48 0.546665 10.5867 0.439998 11.84 0.439998C12.2133 0.439998 12.5733 0.453332 12.92 0.48C13.2667 0.506666 13.6133 0.546665 13.96 0.599998V4.32C13.4267 4.21333 12.84 4.16 12.2 4.16C11.56 4.16 11.0267 4.24 10.6 4.4C10.2 4.56 9.88 4.84 9.64 5.24C9.42667 5.61333 9.26667 6.14666 9.16 6.84C9.08 7.50666 9.04 8.36 9.04 9.4H13.56V13.36H9.04V31H4.04V13.36H0.6V9.4H4.04V9.2ZM23.88 27.24C24.3333 27.24 24.7733 27.1867 25.2 27.08V31C24.48 31.16 23.68 31.24 22.8 31.24C20.6667 31.24 19.16 30.8267 18.28 30C17.4267 29.1467 17 27.8 17 25.96V0.599998H22V24.76C22 25.7733 22.1333 26.44 22.4 26.76C22.6933 27.08 23.1867 27.24 23.88 27.24ZM37.8213 9C39.5813 9 41.0613 9.16 42.2613 9.48C43.4613 9.8 44.4213 10.2533 45.1413 10.84C45.8879 11.4267 46.4079 12.16 46.7013 13.04C47.0213 13.8933 47.1813 14.8533 47.1813 15.92V31H42.7413L42.2213 28.24C41.6879 29.1733 40.7813 29.9333 39.5013 30.52C38.2479 31.1067 36.7546 31.4 35.0213 31.4C30.0879 31.4 27.6213 29.2267 27.6213 24.88C27.6213 22.3467 28.3813 20.5733 29.9013 19.56C31.4213 18.52 33.5813 18 36.3813 18H42.1813V17.04C42.1813 16.4 42.1146 15.84 41.9813 15.36C41.8479 14.88 41.5946 14.48 41.2213 14.16C40.8746 13.84 40.3813 13.6 39.7413 13.44C39.1013 13.28 38.2879 13.2 37.3013 13.2C36.5279 13.2 35.7546 13.24 34.9813 13.32C34.2079 13.4 33.4346 13.5067 32.6613 13.64V9.36C33.4879 9.22667 34.3546 9.13333 35.2613 9.08C36.1946 9.02667 37.0479 9 37.8213 9ZM36.1013 27.48C37.6213 27.48 38.9013 27.2 39.9413 26.64C40.9813 26.08 41.7279 25.3333 42.1813 24.4V21.56H37.0613C35.4879 21.56 34.3413 21.7733 33.6213 22.2C32.9279 22.6 32.5813 23.44 32.5813 24.72C32.5813 25.6533 32.8479 26.3467 33.3813 26.8C33.9413 27.2533 34.8479 27.48 36.1013 27.48ZM59.2297 31.24C58.0297 31.24 56.8297 31.1733 55.6297 31.04C54.4297 30.9333 53.403 30.7733 52.5497 30.56V26.36C53.483 26.6533 54.5364 26.8933 55.7097 27.08C56.9097 27.24 58.003 27.32 58.9897 27.32C60.3764 27.32 61.403 27.1467 62.0697 26.8C62.7364 26.4533 63.0697 25.7733 63.0697 24.76C63.0697 24.2533 63.003 23.84 62.8697 23.52C62.763 23.1733 62.5497 22.88 62.2297 22.64C61.9097 22.4 61.4564 22.1867 60.8697 22C60.3097 21.8133 59.5764 21.6133 58.6697 21.4C57.4964 21.1333 56.5364 20.8267 55.7897 20.48C55.043 20.1333 54.443 19.7333 53.9897 19.28C53.563 18.8 53.2564 18.24 53.0697 17.6C52.9097 16.9333 52.8297 16.1467 52.8297 15.24C52.8297 13.2933 53.483 11.7733 54.7897 10.68C56.0964 9.56 58.2164 9 61.1497 9C62.2964 9 63.403 9.06667 64.4697 9.2C65.563 9.33333 66.3764 9.50667 66.9097 9.72L66.6697 13.64C66.083 13.4267 65.283 13.24 64.2697 13.08C63.283 12.92 62.2964 12.84 61.3097 12.84C59.923 12.84 58.9364 13.0133 58.3497 13.36C57.7897 13.68 57.5097 14.2933 57.5097 15.2C57.5097 15.6267 57.563 15.9733 57.6697 16.24C57.7764 16.5067 57.9764 16.7333 58.2697 16.92C58.563 17.1067 58.963 17.28 59.4697 17.44C60.003 17.6 60.6964 17.7867 61.5497 18C62.7497 18.2933 63.7497 18.6133 64.5497 18.96C65.3497 19.3067 65.9897 19.7333 66.4697 20.24C66.9497 20.72 67.283 21.32 67.4697 22.04C67.683 22.7333 67.7897 23.5867 67.7897 24.6C67.7897 27.0267 67.043 28.7467 65.5497 29.76C64.0564 30.7467 61.9497 31.24 59.2297 31.24ZM84.8428 9C86.2028 9 87.3361 9.16 88.2428 9.48C89.1761 9.8 89.9228 10.2667 90.4828 10.88C91.0428 11.4933 91.4428 12.2533 91.6828 13.16C91.9228 14.04 92.0428 15.0533 92.0428 16.2V31H87.0428V17.6C87.0428 16.08 86.7895 14.96 86.2828 14.24C85.8028 13.52 84.8161 13.16 83.3228 13.16C82.0695 13.16 80.9761 13.4133 80.0428 13.92C79.1095 14.4 78.4428 15.3333 78.0428 16.72V31H73.0428V0.599998H78.0428V12.2C78.6561 11.0533 79.5628 10.24 80.7628 9.76C81.9895 9.25333 83.3495 9 84.8428 9ZM103.878 31.24C102.678 31.24 101.478 31.1733 100.278 31.04C99.0781 30.9333 98.0515 30.7733 97.1981 30.56V26.36C98.1315 26.6533 99.1848 26.8933 100.358 27.08C101.558 27.24 102.651 27.32 103.638 27.32C105.025 27.32 106.051 27.1467 106.718 26.8C107.385 26.4533 107.718 25.7733 107.718 24.76C107.718 24.2533 107.651 23.84 107.518 23.52C107.411 23.1733 107.198 22.88 106.878 22.64C106.558 22.4 106.105 22.1867 105.518 22C104.958 21.8133 104.225 21.6133 103.318 21.4C102.145 21.1333 101.185 20.8267 100.438 20.48C99.6915 20.1333 99.0915 19.7333 98.6381 19.28C98.2115 18.8 97.9048 18.24 97.7181 17.6C97.5581 16.9333 97.4781 16.1467 97.4781 15.24C97.4781 13.2933 98.1315 11.7733 99.4381 10.68C100.745 9.56 102.865 9 105.798 9C106.945 9 108.051 9.06667 109.118 9.2C110.211 9.33333 111.025 9.50667 111.558 9.72L111.318 13.64C110.731 13.4267 109.931 13.24 108.918 13.08C107.931 12.92 106.945 12.84 105.958 12.84C104.571 12.84 103.585 13.0133 102.998 13.36C102.438 13.68 102.158 14.2933 102.158 15.2C102.158 15.6267 102.211 15.9733 102.318 16.24C102.425 16.5067 102.625 16.7333 102.918 16.92C103.211 17.1067 103.611 17.28 104.118 17.44C104.651 17.6 105.345 17.7867 106.198 18C107.398 18.2933 108.398 18.6133 109.198 18.96C109.998 19.3067 110.638 19.7333 111.118 20.24C111.598 20.72 111.931 21.32 112.118 22.04C112.331 22.7333 112.438 23.5867 112.438 24.6C112.438 27.0267 111.691 28.7467 110.198 29.76C108.705 30.7467 106.598 31.24 103.878 31.24ZM129.491 9C130.851 9 131.985 9.16 132.891 9.48C133.825 9.8 134.571 10.2667 135.131 10.88C135.691 11.4933 136.091 12.2533 136.331 13.16C136.571 14.04 136.691 15.0533 136.691 16.2V31H131.691V17.6C131.691 16.08 131.451 14.96 130.971 14.24C130.491 13.52 129.491 13.16 127.971 13.16C126.691 13.16 125.598 13.4 124.691 13.88C123.811 14.3333 123.145 15.24 122.691 16.6V31H117.691V9.4H122.691V12.12C123.305 11 124.211 10.2 125.411 9.72C126.638 9.24 127.998 9 129.491 9ZM151.767 9C153.527 9 155.007 9.16 156.207 9.48C157.407 9.8 158.367 10.2533 159.087 10.84C159.833 11.4267 160.353 12.16 160.647 13.04C160.967 13.8933 161.127 14.8533 161.127 15.92V31H156.687L156.167 28.24C155.633 29.1733 154.727 29.9333 153.447 30.52C152.193 31.1067 150.7 31.4 148.967 31.4C144.033 31.4 141.567 29.2267 141.567 24.88C141.567 22.3467 142.327 20.5733 143.847 19.56C145.367 18.52 147.527 18 150.327 18H156.127V17.04C156.127 16.4 156.06 15.84 155.927 15.36C155.793 14.88 155.54 14.48 155.167 14.16C154.82 13.84 154.327 13.6 153.687 13.44C153.047 13.28 152.233 13.2 151.247 13.2C150.473 13.2 149.7 13.24 148.927 13.32C148.153 13.4 147.38 13.5067 146.607 13.64V9.36C147.433 9.22667 148.3 9.13333 149.207 9.08C150.14 9.02667 150.993 9 151.767 9ZM150.047 27.48C151.567 27.48 152.847 27.2 153.887 26.64C154.927 26.08 155.673 25.3333 156.127 24.4V21.56H151.007C149.433 21.56 148.287 21.7733 147.567 22.2C146.873 22.6 146.527 23.44 146.527 24.72C146.527 25.6533 146.793 26.3467 147.327 26.8C147.887 27.2533 148.793 27.48 150.047 27.48ZM169.975 6.08C169.415 6.08 168.948 6.05333 168.575 6C168.228 5.94667 167.935 5.82667 167.695 5.64C167.482 5.42667 167.335 5.14667 167.255 4.8C167.175 4.45333 167.135 3.97333 167.135 3.36C167.135 2.74666 167.175 2.26666 167.255 1.92C167.335 1.54666 167.482 1.28 167.695 1.12C167.935 0.933333 168.228 0.813333 168.575 0.759998C168.948 0.706666 169.415 0.679999 169.975 0.679999C170.535 0.679999 170.988 0.706666 171.335 0.759998C171.708 0.813333 172.002 0.933333 172.215 1.12C172.455 1.28 172.615 1.54666 172.695 1.92C172.775 2.26666 172.815 2.74666 172.815 3.36C172.815 3.97333 172.775 4.45333 172.695 4.8C172.615 5.14667 172.455 5.42667 172.215 5.64C172.002 5.82667 171.708 5.94667 171.335 6C170.988 6.05333 170.535 6.08 169.975 6.08ZM167.455 9.4H172.455V31H167.455V9.4ZM184.506 31.24C182.373 31.24 180.866 30.8267 179.986 30C179.133 29.1467 178.706 27.8 178.706 25.96V0.599998H183.706V24.76C183.706 25.7733 183.839 26.44 184.106 26.76C184.399 27.08 184.893 27.24 185.586 27.24C186.039 27.24 186.479 27.1867 186.906 27.08V31C186.186 31.16 185.386 31.24 184.506 31.24Z" fill="#2496ED"/>
</svg>
