<svg width="261" height="58" viewBox="0 0 261 58" fill="none" xmlns="http://www.w3.org/2000/svg">
<path d="M75.04 26.2C75.04 24.3333 75.2133 22.8267 75.56 21.68C75.9067 20.5333 76.4133 19.6533 77.08 19.04C77.7467 18.4 78.56 17.9733 79.52 17.76C80.48 17.5467 81.5867 17.44 82.84 17.44C83.2133 17.44 83.5733 17.4533 83.92 17.48C84.2667 17.5067 84.6133 17.5467 84.96 17.6V21.32C84.4267 21.2133 83.84 21.16 83.2 21.16C82.56 21.16 82.0267 21.24 81.6 21.4C81.2 21.56 80.88 21.84 80.64 22.24C80.4267 22.6133 80.2667 23.1467 80.16 23.84C80.08 24.5067 80.04 25.36 80.04 26.4H84.56V30.36H80.04V48H75.04V30.36H71.6V26.4H75.04V26.2ZM94.88 44.24C95.3333 44.24 95.7733 44.1867 96.2 44.08V48C95.48 48.16 94.68 48.24 93.8 48.24C91.6667 48.24 90.16 47.8267 89.28 47C88.4267 46.1467 88 44.8 88 42.96V17.6H93V41.76C93 42.7733 93.1333 43.44 93.4 43.76C93.6933 44.08 94.1867 44.24 94.88 44.24ZM108.821 26C110.581 26 112.061 26.16 113.261 26.48C114.461 26.8 115.421 27.2533 116.141 27.84C116.888 28.4267 117.408 29.16 117.701 30.04C118.021 30.8933 118.181 31.8533 118.181 32.92V48H113.741L113.221 45.24C112.688 46.1733 111.781 46.9333 110.501 47.52C109.248 48.1067 107.755 48.4 106.021 48.4C101.088 48.4 98.6213 46.2267 98.6213 41.88C98.6213 39.3467 99.3813 37.5733 100.901 36.56C102.421 35.52 104.581 35 107.381 35H113.181V34.04C113.181 33.4 113.115 32.84 112.981 32.36C112.848 31.88 112.595 31.48 112.221 31.16C111.875 30.84 111.381 30.6 110.741 30.44C110.101 30.28 109.288 30.2 108.301 30.2C107.528 30.2 106.755 30.24 105.981 30.32C105.208 30.4 104.435 30.5067 103.661 30.64V26.36C104.488 26.2267 105.355 26.1333 106.261 26.08C107.195 26.0267 108.048 26 108.821 26ZM107.101 44.48C108.621 44.48 109.901 44.2 110.941 43.64C111.981 43.08 112.728 42.3333 113.181 41.4V38.56H108.061C106.488 38.56 105.341 38.7733 104.621 39.2C103.928 39.6 103.581 40.44 103.581 41.72C103.581 42.6533 103.848 43.3467 104.381 43.8C104.941 44.2533 105.848 44.48 107.101 44.48ZM130.23 48.24C129.03 48.24 127.83 48.1733 126.63 48.04C125.43 47.9333 124.403 47.7733 123.55 47.56V43.36C124.483 43.6533 125.536 43.8933 126.71 44.08C127.91 44.24 129.003 44.32 129.99 44.32C131.376 44.32 132.403 44.1467 133.07 43.8C133.736 43.4533 134.07 42.7733 134.07 41.76C134.07 41.2533 134.003 40.84 133.87 40.52C133.763 40.1733 133.55 39.88 133.23 39.64C132.91 39.4 132.456 39.1867 131.87 39C131.31 38.8133 130.576 38.6133 129.67 38.4C128.496 38.1333 127.536 37.8267 126.79 37.48C126.043 37.1333 125.443 36.7333 124.99 36.28C124.563 35.8 124.256 35.24 124.07 34.6C123.91 33.9333 123.83 33.1467 123.83 32.24C123.83 30.2933 124.483 28.7733 125.79 27.68C127.096 26.56 129.216 26 132.15 26C133.296 26 134.403 26.0667 135.47 26.2C136.563 26.3333 137.376 26.5067 137.91 26.72L137.67 30.64C137.083 30.4267 136.283 30.24 135.27 30.08C134.283 29.92 133.296 29.84 132.31 29.84C130.923 29.84 129.936 30.0133 129.35 30.36C128.79 30.68 128.51 31.2933 128.51 32.2C128.51 32.6267 128.563 32.9733 128.67 33.24C128.776 33.5067 128.976 33.7333 129.27 33.92C129.563 34.1067 129.963 34.28 130.47 34.44C131.003 34.6 131.696 34.7867 132.55 35C133.75 35.2933 134.75 35.6133 135.55 35.96C136.35 36.3067 136.99 36.7333 137.47 37.24C137.95 37.72 138.283 38.32 138.47 39.04C138.683 39.7333 138.79 40.5867 138.79 41.6C138.79 44.0267 138.043 45.7467 136.55 46.76C135.056 47.7467 132.95 48.24 130.23 48.24ZM155.843 26C157.203 26 158.336 26.16 159.243 26.48C160.176 26.8 160.923 27.2667 161.483 27.88C162.043 28.4933 162.443 29.2533 162.683 30.16C162.923 31.04 163.043 32.0533 163.043 33.2V48H158.043V34.6C158.043 33.08 157.789 31.96 157.283 31.24C156.803 30.52 155.816 30.16 154.323 30.16C153.069 30.16 151.976 30.4133 151.043 30.92C150.109 31.4 149.443 32.3333 149.043 33.72V48H144.043V17.6H149.043V29.2C149.656 28.0533 150.563 27.24 151.763 26.76C152.989 26.2533 154.349 26 155.843 26ZM174.878 48.24C173.678 48.24 172.478 48.1733 171.278 48.04C170.078 47.9333 169.051 47.7733 168.198 47.56V43.36C169.131 43.6533 170.185 43.8933 171.358 44.08C172.558 44.24 173.651 44.32 174.638 44.32C176.025 44.32 177.051 44.1467 177.718 43.8C178.385 43.4533 178.718 42.7733 178.718 41.76C178.718 41.2533 178.651 40.84 178.518 40.52C178.411 40.1733 178.198 39.88 177.878 39.64C177.558 39.4 177.105 39.1867 176.518 39C175.958 38.8133 175.225 38.6133 174.318 38.4C173.145 38.1333 172.185 37.8267 171.438 37.48C170.691 37.1333 170.091 36.7333 169.638 36.28C169.211 35.8 168.905 35.24 168.718 34.6C168.558 33.9333 168.478 33.1467 168.478 32.24C168.478 30.2933 169.131 28.7733 170.438 27.68C171.745 26.56 173.865 26 176.798 26C177.945 26 179.051 26.0667 180.118 26.2C181.211 26.3333 182.025 26.5067 182.558 26.72L182.318 30.64C181.731 30.4267 180.931 30.24 179.918 30.08C178.931 29.92 177.945 29.84 176.958 29.84C175.571 29.84 174.585 30.0133 173.998 30.36C173.438 30.68 173.158 31.2933 173.158 32.2C173.158 32.6267 173.211 32.9733 173.318 33.24C173.425 33.5067 173.625 33.7333 173.918 33.92C174.211 34.1067 174.611 34.28 175.118 34.44C175.651 34.6 176.345 34.7867 177.198 35C178.398 35.2933 179.398 35.6133 180.198 35.96C180.998 36.3067 181.638 36.7333 182.118 37.24C182.598 37.72 182.931 38.32 183.118 39.04C183.331 39.7333 183.438 40.5867 183.438 41.6C183.438 44.0267 182.691 45.7467 181.198 46.76C179.705 47.7467 177.598 48.24 174.878 48.24ZM200.491 26C201.851 26 202.985 26.16 203.891 26.48C204.825 26.8 205.571 27.2667 206.131 27.88C206.691 28.4933 207.091 29.2533 207.331 30.16C207.571 31.04 207.691 32.0533 207.691 33.2V48H202.691V34.6C202.691 33.08 202.451 31.96 201.971 31.24C201.491 30.52 200.491 30.16 198.971 30.16C197.691 30.16 196.598 30.4 195.691 30.88C194.811 31.3333 194.145 32.24 193.691 33.6V48H188.691V26.4H193.691V29.12C194.305 28 195.211 27.2 196.411 26.72C197.638 26.24 198.998 26 200.491 26ZM222.767 26C224.527 26 226.007 26.16 227.207 26.48C228.407 26.8 229.367 27.2533 230.087 27.84C230.833 28.4267 231.353 29.16 231.647 30.04C231.967 30.8933 232.127 31.8533 232.127 32.92V48H227.687L227.167 45.24C226.633 46.1733 225.727 46.9333 224.447 47.52C223.193 48.1067 221.7 48.4 219.967 48.4C215.033 48.4 212.567 46.2267 212.567 41.88C212.567 39.3467 213.327 37.5733 214.847 36.56C216.367 35.52 218.527 35 221.327 35H227.127V34.04C227.127 33.4 227.06 32.84 226.927 32.36C226.793 31.88 226.54 31.48 226.167 31.16C225.82 30.84 225.327 30.6 224.687 30.44C224.047 30.28 223.233 30.2 222.247 30.2C221.473 30.2 220.7 30.24 219.927 30.32C219.153 30.4 218.38 30.5067 217.607 30.64V26.36C218.433 26.2267 219.3 26.1333 220.207 26.08C221.14 26.0267 221.993 26 222.767 26ZM221.047 44.48C222.567 44.48 223.847 44.2 224.887 43.64C225.927 43.08 226.673 42.3333 227.127 41.4V38.56H222.007C220.433 38.56 219.287 38.7733 218.567 39.2C217.873 39.6 217.527 40.44 217.527 41.72C217.527 42.6533 217.793 43.3467 218.327 43.8C218.887 44.2533 219.793 44.48 221.047 44.48ZM240.975 23.08C240.415 23.08 239.948 23.0533 239.575 23C239.228 22.9467 238.935 22.8267 238.695 22.64C238.482 22.4267 238.335 22.1467 238.255 21.8C238.175 21.4533 238.135 20.9733 238.135 20.36C238.135 19.7467 238.175 19.2667 238.255 18.92C238.335 18.5467 238.482 18.28 238.695 18.12C238.935 17.9333 239.228 17.8133 239.575 17.76C239.948 17.7067 240.415 17.68 240.975 17.68C241.535 17.68 241.988 17.7067 242.335 17.76C242.708 17.8133 243.002 17.9333 243.215 18.12C243.455 18.28 243.615 18.5467 243.695 18.92C243.775 19.2667 243.815 19.7467 243.815 20.36C243.815 20.9733 243.775 21.4533 243.695 21.8C243.615 22.1467 243.455 22.4267 243.215 22.64C243.002 22.8267 242.708 22.9467 242.335 23C241.988 23.0533 241.535 23.08 240.975 23.08ZM238.455 26.4H243.455V48H238.455V26.4ZM255.506 48.24C253.373 48.24 251.866 47.8267 250.986 47C250.133 46.1467 249.706 44.8 249.706 42.96V17.6H254.706V41.76C254.706 42.7733 254.839 43.44 255.106 43.76C255.399 44.08 255.893 44.24 256.586 44.24C257.039 44.24 257.479 44.1867 257.906 44.08V48C257.186 48.16 256.386 48.24 255.506 48.24Z" fill="#2496ED"/>
<path fill-rule="evenodd" clip-rule="evenodd" d="M26.5789 50.5716C24.9221 50.5716 23.5789 49.2285 23.5789 47.5716V45.7525V17.3233C23.5789 15.7287 24.8716 14.4361 26.4662 14.4361H61.1128C62.7073 14.4361 64 15.7287 64 17.3233V47.6844C64 49.279 62.7073 50.5716 61.1128 50.5716H53.4135H26.5789ZM36.8061 48.4146C36.9318 48.6361 37.1286 48.8099 37.3654 48.9086C37.5089 48.9662 37.6619 48.9971 37.8167 49C37.9983 48.993 38.1758 48.9438 38.3346 48.8565C38.4934 48.7691 38.6292 48.646 38.7308 48.4972L53.7733 29.0688C53.8949 28.9064 53.9707 28.7151 53.9931 28.5144C54.0154 28.3136 53.9835 28.1106 53.9006 27.926C53.8052 27.7336 53.6569 27.5717 53.4728 27.4585C53.2887 27.3453 53.0761 27.2856 52.8592 27.286H47.3629L49.3647 18.3947C49.403 18.226 49.4021 18.051 49.362 17.8827C49.3219 17.7144 49.2437 17.5574 49.1333 17.4233C49.0244 17.2907 48.8868 17.1839 48.7306 17.1107C48.5744 17.0375 48.4036 16.9998 48.2307 17.0004H36.6596C36.3937 16.9934 36.1335 17.0771 35.9227 17.2373C35.712 17.3976 35.5635 17.6247 35.5025 17.8804L32.0311 32.7374C31.9903 32.9077 31.9896 33.085 32.0292 33.2557C32.0687 33.4263 32.1475 33.5857 32.2593 33.7216C32.3711 33.8574 32.513 33.966 32.6741 34.0391C32.8351 34.1122 33.0111 34.1478 33.1882 34.143H38.7771L36.6712 47.6857C36.6329 47.9368 36.6804 48.1932 36.8061 48.4146Z" fill="#2496ED"/>
<path d="M37.3654 48.9086L36.7882 50.2931L36.7975 50.2969L36.8067 50.3006L37.3654 48.9086ZM36.8061 48.4146L38.1106 47.6741L38.1106 47.6741L36.8061 48.4146ZM37.8167 49L37.7891 50.4997L37.8318 50.5005L37.8745 50.4989L37.8167 49ZM38.7308 48.4972L37.5448 47.5788L37.5174 47.6142L37.4922 47.6511L38.7308 48.4972ZM53.7733 29.0688L54.9594 29.9871L54.9668 29.9775L54.9741 29.9677L53.7733 29.0688ZM53.9931 28.5144L55.4838 28.6804L55.4838 28.6804L53.9931 28.5144ZM53.9006 27.926L55.2689 27.3114L55.2571 27.2851L55.2443 27.2594L53.9006 27.926ZM53.4728 27.4585L54.2582 26.1805L54.2582 26.1805L53.4728 27.4585ZM52.8592 27.286L52.8592 28.786L52.8622 28.786L52.8592 27.286ZM47.3629 27.286L45.8995 26.9565L45.4876 28.786H47.3629V27.286ZM49.3647 18.3947L47.902 18.0624L47.9013 18.0652L49.3647 18.3947ZM49.1333 17.4233L47.9741 18.3753L47.9755 18.3769L49.1333 17.4233ZM48.7306 17.1107L49.367 15.7524L49.367 15.7524L48.7306 17.1107ZM48.2307 17.0004L48.2307 18.5004L48.2358 18.5004L48.2307 17.0004ZM36.6596 17.0004L36.62 18.4999L36.6398 18.5004H36.6596V17.0004ZM35.5025 17.8804L34.0435 17.5319L34.0418 17.5391L35.5025 17.8804ZM32.0311 32.7374L33.4898 33.087L33.4918 33.0786L32.0311 32.7374ZM32.6741 34.0391L33.2939 32.6731L33.2938 32.6731L32.6741 34.0391ZM33.1882 34.143V32.643H33.1683L33.1484 32.6436L33.1882 34.143ZM38.7771 34.143L40.2593 34.3735L40.5284 32.643H38.7771V34.143ZM36.6712 47.6857L35.189 47.4552L35.1882 47.4599L36.6712 47.6857ZM4.33081 24.0602L2.83523 23.9451L2.83081 24.0025V24.0602H4.33081ZM14.9173 55.8196L14.8022 57.3151L14.8597 57.3196H14.9173V55.8196ZM18.2857 39.9399H16.7857V40.1482L16.8425 40.3486L18.2857 39.9399ZM56.5509 54.1615L55.4215 55.1486L55.4215 55.1486L56.5509 54.1615ZM22.0789 47.5716C22.0789 50.0569 24.0937 52.0716 26.5789 52.0716V49.0716C25.7505 49.0716 25.0789 48.4001 25.0789 47.5716H22.0789ZM22.0789 45.7525V47.5716H25.0789V45.7525H22.0789ZM22.0789 17.3233V45.7525H25.0789V17.3233H22.0789ZM26.4662 12.9361C24.0432 12.9361 22.0789 14.9003 22.0789 17.3233H25.0789C25.0789 16.5572 25.7 15.9361 26.4662 15.9361V12.9361ZM61.1128 12.9361H26.4662V15.9361H61.1128V12.9361ZM65.5 17.3233C65.5 14.9003 63.5358 12.9361 61.1128 12.9361V15.9361C61.8789 15.9361 62.5 16.5572 62.5 17.3233H65.5ZM65.5 47.6844V17.3233H62.5V47.6844H65.5ZM61.1128 52.0716C63.5358 52.0716 65.5 50.1074 65.5 47.6844H62.5C62.5 48.4506 61.8789 49.0716 61.1128 49.0716V52.0716ZM53.4135 52.0716H61.1128V49.0716H53.4135V52.0716ZM26.5789 52.0716H53.4135V49.0716H26.5789V52.0716ZM37.9426 47.5241C38.0104 47.5523 38.0706 47.6038 38.1106 47.6741L35.5017 49.1552C35.793 49.6684 36.2468 50.0674 36.7882 50.2931L37.9426 47.5241ZM37.8443 47.5003C37.8713 47.5008 37.8983 47.5061 37.9241 47.5165L36.8067 50.3006C37.1195 50.4262 37.4524 50.4935 37.7891 50.4997L37.8443 47.5003ZM37.6116 47.5422C37.6578 47.5168 37.7082 47.5031 37.7589 47.5011L37.8745 50.4989C38.2885 50.4829 38.6938 50.3708 39.0576 50.1707L37.6116 47.5422ZM37.4922 47.6511C37.5241 47.6044 37.5654 47.5676 37.6116 47.5422L39.0576 50.1707C39.4214 49.9706 39.7343 49.6875 39.9695 49.3432L37.4922 47.6511ZM52.5873 28.1505L37.5448 47.5788L39.9169 49.4155L54.9594 29.9871L52.5873 28.1505ZM52.5023 28.3483C52.5097 28.2821 52.5345 28.2206 52.5725 28.1699L54.9741 29.9677C55.2552 29.5922 55.4317 29.1481 55.4838 28.6804L52.5023 28.3483ZM52.5323 28.5406C52.5056 28.4811 52.4949 28.4146 52.5023 28.3483L55.4838 28.6804C55.5359 28.2126 55.4615 27.7401 55.2689 27.3114L52.5323 28.5406ZM52.6874 28.7365C52.6335 28.7033 52.5874 28.6541 52.5569 28.5926L55.2443 27.2594C55.023 26.8131 54.6804 26.44 54.2582 26.1805L52.6874 28.7365ZM52.8622 28.786C52.8018 28.7861 52.7413 28.7695 52.6874 28.7365L54.2582 26.1805C53.8361 25.9211 53.3504 25.785 52.8562 25.786L52.8622 28.786ZM47.3629 28.786H52.8592V25.786H47.3629V28.786ZM47.9013 18.0652L45.8995 26.9565L48.8263 27.6155L50.8281 18.7241L47.9013 18.0652ZM47.9029 18.2303C47.8897 18.1752 47.8894 18.1176 47.902 18.0624L50.8274 18.727C50.9166 18.3344 50.9145 17.9267 50.8212 17.5351L47.9029 18.2303ZM47.9755 18.3769C47.9412 18.3354 47.916 18.2854 47.9029 18.2303L50.8212 17.5351C50.7279 17.1435 50.5462 16.7793 50.2911 16.4696L47.9755 18.3769ZM48.0942 18.469C48.0492 18.4479 48.0078 18.4163 47.9741 18.3753L50.2924 16.4712C50.0409 16.165 49.7244 15.9198 49.367 15.7524L48.0942 18.469ZM48.2358 18.5004C48.1875 18.5006 48.1392 18.4901 48.0942 18.469L49.367 15.7524C49.0096 15.5849 48.6197 15.4991 48.2257 15.5004L48.2358 18.5004ZM36.6596 18.5004H48.2307V15.5004H36.6596V18.5004ZM36.8307 18.4313C36.7682 18.4788 36.6938 18.5018 36.62 18.4999L36.6992 15.5009C36.0935 15.4849 35.4987 15.6753 35.0147 16.0434L36.8307 18.4313ZM36.9614 18.2289C36.9414 18.3129 36.8936 18.3835 36.8307 18.4313L35.0147 16.0434C34.5303 16.4117 34.1857 16.9366 34.0435 17.5319L36.9614 18.2289ZM33.4918 33.0786L36.9631 18.2217L34.0418 17.5391L30.5705 32.3961L33.4918 33.0786ZM33.4904 32.9169C33.5034 32.9729 33.5032 33.0312 33.4898 33.087L30.5724 32.3877C30.4774 32.7842 30.4759 33.1972 30.5679 33.5945L33.4904 32.9169ZM33.4174 32.7683C33.452 32.8103 33.4775 32.8611 33.4904 32.9169L30.5679 33.5945C30.66 33.9916 30.8429 34.3611 31.1012 34.6749L33.4174 32.7683ZM33.2938 32.6731C33.3402 32.6942 33.3828 32.7263 33.4174 32.7683L31.1012 34.6749C31.3594 34.9885 31.6858 35.2379 32.0543 35.4051L33.2938 32.6731ZM33.1484 32.6436C33.1979 32.6423 33.2475 32.6521 33.2939 32.6731L32.0543 35.4051C32.4227 35.5723 32.8243 35.6532 33.2281 35.6425L33.1484 32.6436ZM38.7771 32.643H33.1882V35.643H38.7771V32.643ZM38.1533 47.9162L40.2593 34.3735L37.2949 33.9126L35.189 47.4552L38.1533 47.9162ZM38.1106 47.6741C38.1507 47.7447 38.1667 47.8286 38.1541 47.9115L35.1882 47.4599C35.0992 48.045 35.2102 48.6417 35.5017 49.1552L38.1106 47.6741ZM11.5489 16.3045C7.60544 16.3045 5.34183 18.1868 4.13603 20.1462C3.55534 21.0898 3.23487 22.0214 3.05827 22.7101C2.96928 23.0572 2.91485 23.3503 2.88209 23.5633C2.86567 23.67 2.8546 23.7572 2.84732 23.8217C2.84367 23.854 2.84097 23.8807 2.83902 23.9014C2.83805 23.9117 2.83726 23.9206 2.83663 23.9279C2.83632 23.9315 2.83605 23.9348 2.83582 23.9377C2.8357 23.9391 2.83559 23.9404 2.8355 23.9417C2.83545 23.9423 2.83538 23.9432 2.83536 23.9435C2.83529 23.9443 2.83523 23.9451 4.33081 24.0602C5.82639 24.1752 5.82633 24.176 5.82628 24.1767C5.82626 24.1769 5.8262 24.1776 5.82617 24.1781C5.8261 24.1789 5.82604 24.1797 5.82599 24.1804C5.82587 24.1817 5.82579 24.1827 5.82574 24.1834C5.82563 24.1846 5.82563 24.1845 5.82577 24.183C5.82605 24.18 5.82688 24.1716 5.8284 24.1581C5.83146 24.131 5.8373 24.0838 5.8472 24.0194C5.86708 23.8903 5.90287 23.6947 5.96426 23.4553C6.08841 22.9711 6.30929 22.3388 6.691 21.7185C7.41002 20.5501 8.75543 19.3045 11.5489 19.3045V16.3045ZM2.83081 24.0602V43.7895H5.83081V24.0602H2.83081ZM2.83081 43.7895C2.83081 46.1451 4.09391 49.3433 6.08169 51.9723C8.08441 54.6211 11.0798 57.0288 14.8022 57.3151L15.0323 54.324C12.4991 54.1291 10.2013 52.4466 8.47467 50.163C6.73313 47.8597 5.83081 45.2835 5.83081 43.7895H2.83081ZM19.7857 39.9399V24.0602H16.7857V39.9399H19.7857ZM18.2857 24.0602C19.7857 24.0602 19.7857 24.0593 19.7857 24.0585C19.7857 24.0582 19.7857 24.0573 19.7857 24.0567C19.7857 24.0555 19.7857 24.0541 19.7857 24.0527C19.7857 24.0498 19.7856 24.0465 19.7856 24.0428C19.7856 24.0355 19.7854 24.0266 19.7853 24.0162C19.7849 23.9954 19.7843 23.9685 19.7831 23.9361C19.7808 23.8712 19.7764 23.7836 19.7681 23.6763C19.7517 23.4623 19.7196 23.1673 19.6568 22.8177C19.5325 22.125 19.2812 21.1812 18.7643 20.2212C18.2431 19.2532 17.444 18.2561 16.2331 17.5066C15.0181 16.7544 13.4738 16.3045 11.5489 16.3045V19.3045C12.9923 19.3045 13.9744 19.6366 14.6541 20.0574C15.3379 20.4807 15.802 21.0475 16.1229 21.6435C16.4481 22.2474 16.6178 22.8675 16.704 23.3477C16.7465 23.5845 16.7671 23.7783 16.777 23.9064C16.7819 23.9702 16.7841 24.0169 16.785 24.0437C16.7855 24.0571 16.7857 24.0654 16.7857 24.0683C16.7857 24.0697 16.7857 24.0698 16.7857 24.0684C16.7857 24.0678 16.7857 24.0668 16.7857 24.0654C16.7857 24.0647 16.7857 24.0639 16.7857 24.063C16.7857 24.0626 16.7857 24.0619 16.7857 24.0617C16.7857 24.0609 16.7857 24.0602 18.2857 24.0602ZM24.0683 44.3345C22.7189 43.8688 21.8945 43.3818 21.2932 42.7359C20.6856 42.0832 20.1838 41.137 19.7289 39.5311L16.8425 40.3486C17.3638 42.1894 18.0379 43.6419 19.0975 44.78C20.1633 45.9249 21.4974 46.6209 23.0895 47.1704L24.0683 44.3345ZM55.798 54.3196H14.9173V57.3196H55.798V54.3196ZM57.6804 53.1744L54.543 49.5845L52.2841 51.5587L55.4215 55.1486L57.6804 53.1744ZM26.4662 12.9361C24.0432 12.9361 22.0789 14.9003 22.0789 17.3233H25.0789C25.0789 16.5572 25.7 15.9361 26.4662 15.9361V12.9361ZM55.798 57.3196C57.9452 57.3196 59.0934 54.7912 57.6804 53.1744L55.4215 55.1486C55.1389 54.8252 55.3685 54.3196 55.798 54.3196V57.3196ZM65.5 17.3233C65.5 14.9003 63.5358 12.9361 61.1128 12.9361V15.9361C61.8789 15.9361 62.5 16.5572 62.5 17.3233H65.5ZM61.1128 52.0716C63.5358 52.0716 65.5 50.1074 65.5 47.6844H62.5C62.5 48.4506 61.8789 49.0716 61.1128 49.0716V52.0716Z" fill="#2496ED"/>
<path d="M5.77441 7.21805L9.62405 17.3233" stroke="#2496ED" stroke-width="3"/>
<path d="M16.3609 7.69926L12.5112 16.8421" stroke="#2496ED" stroke-width="3"/>
<circle cx="11.5489" cy="25.0226" r="1.92481" fill="#2496ED"/>
<path d="M7.16165 4.33083C7.16165 5.89425 5.89425 7.16165 4.33083 7.16165C2.7674 7.16165 1.5 5.89425 1.5 4.33083C1.5 2.7674 2.7674 1.5 4.33083 1.5C5.89425 1.5 7.16165 2.7674 7.16165 4.33083Z" stroke="#2496ED" stroke-width="3"/>
<path d="M20.6353 4.33083C20.6353 5.89425 19.3679 7.16165 17.8045 7.16165C16.2411 7.16165 14.9737 5.89425 14.9737 4.33083C14.9737 2.7674 16.2411 1.5 17.8045 1.5C19.3679 1.5 20.6353 2.7674 20.6353 4.33083Z" stroke="#2496ED" stroke-width="3"/>
</svg>
